<svg id="publicdomainvectors.org" xmlns="http://www.w3.org/2000/svg" viewBox="0 0 650.81201 207.01807">
  <g>
    <path d="M505.63758,361.27142c2.38163,1.33142,7.883,3.4054,9.276,3.97584a120.1829,120.1829,0,0,1,22.08928,11.52037c5.58905,3.77452,12.17571,8.56086,16.4398,13.79809,2.90659,3.57077,5.18842,8.13708,3.5538,12.76313-1.99387,5.642-8.734,8.19821-14.06972,9.68-6.71574,1.86069-13.991,2.82912-20.89346,3.82876-6.70544.96981-20.56537,2.60777-26.21485,6.02778-.59763.36265-1.88114,1.13546-3.06346,1.93406.65945.345,1.31341.6954,1.95923,1.07169a23.95143,23.95143,0,0,1,8.01886,7.21754c7.27193,10.66467,3.57077,26.11026-.37413,37.26255-9.70515,27.421-75.5337,13.9095-98.03459,14.08335-8.00259.06113-16.10907-.09374-24.07973-.8299a84.69308,84.69308,0,0,1-15.7451-2.70283c-6.01484-1.7575-12.98316-5.17208-13.45854-12.19129-.28525-4.224,2.0251-8.099,4.63488-11.25959q.8129-.98,1.67809-1.90694c-3.59246-.53519-7.19446-1.21154-10.5927-1.84721-8.8087-1.65291-17.59432-3.5748-26.29913-5.69635a312.91592,312.91592,0,0,1-31.01481-8.937,78.858,78.858,0,0,1-11.00013-4.68724c-2.67641-1.45465-5.803-3.51639-6.69738-6.57374a16.30437,16.30437,0,0,1,.76877-12.2253c5.08376-10.03992,21.64512-13.286,31.77065-15.447,5.93876-1.26716,12.1723-2.41757,17.94334-4.27153,2.49914-.8027,7.43284-2.57522,8.81072-4.98877.09916-.17385.54464-1.04853.46863-1.27537-.32462-.96432-3.748-2.41354-4.61186-2.7463-3.985-1.53615-8.39508-2.57244-12.52544-3.69976-7.38117-2.01424-18.52331-5.00094-21.85027-12.59609-3.16326-7.21616,1.92593-14.63982,6.63083-19.83366,4.28245-4.72932,16.25984-7.65079,22.35889-9.07832,11.661-2.73266,23.7504-4.63077,35.61443-6.29328,10.83922-1.5205,21.72121-2.81215,32.61209-3.94149,7.27659-.75722,14.61027-1.48045,21.912-1.981a58.929,58.929,0,0,0,10.90173-1.621,60.34087,60.34087,0,0,0,6.83181-2.37008,51.26421,51.26421,0,0,1,8.956-2.75242,76.73138,76.73138,0,0,1,14.87313-1.19929c4.17382,0,8.54931.2655,12.72105.46383,8.59952.41217,17.21129.97587,25.78161,1.79012a201.112,201.112,0,0,1,25.92965,3.77445c5.19719,1.20409,14.61033,3.56868,15.37361,9.92177.46724,3.88655-2.49706,6.75371-5.54148,8.66336C524.67973,347.85364,509.31767,357.32381,505.63758,361.27142Z" transform="translate(-91.77197 -280.59424)" style="fill: #e3d4c3;fill-rule: evenodd"/>
    <path d="M412.333,325.68689c-18.5199,1.28351-103.16376,9.69972-113.06516,20.78748-28.54285,31.9639,44.15144,22.31647,33.50443,41.254-8.44813,15.02459-68.47846,8.55-60.81676,35.17508,2.64651,9.18964,74.99309,25.59148,92.7429,26.70517,5.76158.35855-47.06956,29.98262,39.71489,29.30349,21.13039-.163,88.38779,12.84323,96.94183-11.67927,18.79633-53.89122-30.03352-36.65552-4.82437-52.13643,18.99737-11.667,97.23113-3.01389,42.33483-40.60787-31.76723-21.75284-55.0538-10.89832-9.70647-39.77087,23.214-14.77876-71.81147-17.33966-74.22432-17.33966C430.07133,317.378,434.48007,324.15213,412.333,325.68689Z" transform="translate(-91.77197 -280.59424)" style="fill: #faf3eb;fill-rule: evenodd"/>
    <path d="M439.6705,400.30279c31.9445,0,57.99773-9.71259,57.99773-21.6228,0-11.90743-26.05323-21.62176-57.99773-21.62176S381.672,366.77256,381.672,378.68C381.672,390.5902,407.72594,400.30279,439.6705,400.30279Z" transform="translate(-91.77197 -280.59424)" style="fill: #fc0;fill-rule: evenodd"/>
    <path d="M430.512,385.05957c19.19431,0,34.85116-5.83626,34.85116-12.99136,0-7.15641-15.65685-12.99233-34.85116-12.99233-19.19291,0-34.84969,5.83592-34.84969,12.99233C395.66232,379.22331,411.3191,385.05957,430.512,385.05957Z" transform="translate(-91.77197 -280.59424)" style="fill: #ffe16b;fill-rule: evenodd"/>
    <path d="M423.38891,332.23211c-2.39589,3.15109-21.91342,4.821-7.676,9.37511,8.20432,2.62342,20.27065-.52837,27.6471-4.26617,1.67947-.85159,13.58488-6.3809,15.13188-6.22875,3.68482-4.06583-27.9683-8.26879-35.103,1.11981Zm-8.26678,76.71979c-3.45324,1.01189-20.60069-4.44545-24.65769-7.14425-10.17844-6.76929-13.703-6.32923-26.28077-5.59579-5.64613.32865-1.23532,6.78834-15.87207,10.00863-2.728.599-6.224,5.99926,2.86785,8.90856,15.45511,4.94524,17.52026,4.25122,33.5214,4.25122,3.03085,0,13.96242,5.58494,21.3525,6.52757,10.47586,1.33782,17.85231,4.60024,21.19422-9.3676.73205-3.06278,2.51744-11.8817-12.12544-7.58834ZM484.1846,403.356c7.52861-3.951,13.24052-7.845,21.36675-10.5968,9.9482-3.36833,5.63591-13.52779,29.84945-11.06939.66279.06787,6.95746,10.29791-2.565,12.76312C522.06793,397.24,519.653,397.479,510.89388,403.7187c-1.12392.80131-28.01789,11.5584-27.7259,4.21589.12427-3.16875-.47739-3.79483,1.01662-4.57855Zm-32.81584,58.63278c8.88547-.06655,20.30869-26.07368,31.26745-26.07368,14.264,0,14.07855,7.73235,11.68065,19.46454-4.13369,20.22789-10.5397,11.41988-29.29868,16.30135-2.92085.762-28.18159,5.95441-28.97616,3.22029-3.19317-10.99068,4.30553-10.69319,12.92884-13.27112A19.67038,19.67038,0,0,1,451.36876,461.98882Z" transform="translate(-91.77197 -280.59424)" style="fill: #fffdfa;fill-rule: evenodd"/>
  </g>
  <path d="M650.36621,280.59473l39.18848,14.42285L641.77051,410.69141H742.584v34.52636H594.27734V414.624Zm71.96777,81.438V487.6123H678.19141l-.583-72.25976,5.82812-53.31983Z" transform="translate(-91.77197 -280.59424)" style="fill: #1c1c1c"/>
  <path d="M147.86084,280.59424l39.18848,14.42285L139.26514,410.69043H240.07861V445.2168H91.772V414.62305Zm71.96777,81.438v125.5791H175.686l-.583-72.25977,5.82812-53.31933Z" transform="translate(-91.77197 -280.59424)" style="fill: #1c1c1c"/>
</svg>
