<svg id="publicdomainvectors.org" xmlns="http://www.w3.org/2000/svg" viewBox="0 0 601.02509 433.92567">
  <g>
    <path d="M544.35839,399.9819c3.4248,1.9146,11.3359,4.897,13.3389,5.7173a172.82442,172.82442,0,0,1,31.7646,16.5664c8.03711,5.4278,17.50879,12.3106,23.64059,19.8418,4.1797,5.1348,7.461,11.7012,5.1104,18.3535-2.8672,8.1133-12.5596,11.7891-20.2324,13.92-9.65729,2.6757-20.11919,4.0683-30.045,5.5058-9.64249,1.3946-29.5732,3.75-37.6972,8.668-.8594.5215-2.7051,1.6328-4.40529,2.7812.94829.4961,1.88869,1,2.81739,1.5411a34.44245,34.44245,0,0,1,11.5312,10.3789c10.4571,15.3359,5.1348,37.5468-.538,53.5839-13.9561,39.4317-108.6182,20.002-140.9747,20.252-11.5078.0879-23.165-.1348-34.62689-1.1934a121.78986,121.78986,0,0,1-22.64161-3.8867c-8.64939-2.5273-18.6699-7.4375-19.3535-17.5312-.4102-6.0742,2.91211-11.6465,6.665-16.1914q1.169-1.40925,2.41311-2.7422c-5.166-.7696-10.34571-1.7422-15.23241-2.6563-12.667-2.3769-25.3008-5.1406-37.8184-8.1914a449.97847,449.97847,0,0,1-44.5996-12.8515,113.39723,113.39723,0,0,1-15.8183-6.7403c-3.8487-2.0918-8.3448-5.0566-9.6309-9.4531-1.7285-5.9258-1.73339-11.9824,1.1055-17.5801,7.3105-14.4375,31.1259-19.1054,45.6865-22.2129,8.54-1.8222,17.5039-3.4765,25.8027-6.1425,3.5938-1.1543,10.6885-3.7032,12.66991-7.1739.14259-.25.78319-1.5078.67389-1.834-.4668-1.3867-5.3897-3.4707-6.63189-3.9492-5.73041-2.209-12.07221-3.6992-18.01171-5.3203-10.6142-2.8965-26.6367-7.1914-31.4209-18.1133-4.5488-10.3769,2.7695-21.0522,9.5352-28.521,6.1582-6.8008,23.3818-11.0019,32.1523-13.0547,16.7686-3.9296,34.1533-6.6591,51.2139-9.0498,15.5869-2.1865,31.2353-4.0439,46.8965-5.6679,10.4638-1.0889,21.00971-2.1289,31.50971-2.8487a84.73986,84.73986,0,0,0,15.67679-2.331,86.77033,86.77033,0,0,0,9.82421-3.4082,73.7183,73.7183,0,0,1,12.87889-3.958,110.34045,110.34045,0,0,1,21.3877-1.7246c6.002,0,12.294.3818,18.293.667,12.3662.5927,24.75,1.4033,37.0742,2.5742,12.3057,1.1699,25.251,2.6416,37.2871,5.4277,7.4736,1.7315,21.0098,5.1318,22.1074,14.2676.6719,5.5889-3.5908,9.7119-7.9687,12.458C571.74119,380.687,549.65039,394.3052,544.35839,399.9819Z" transform="translate(-97.6055 -147.7349)" style="fill: #e3d4c3;fill-rule: evenodd"/>
    <path d="M410.18549,348.811c-26.6318,1.8457-148.35049,13.9483-162.5888,29.8926-41.0449,45.9644,63.4902,32.0913,48.1797,59.3237-12.1485,21.6055-98.47269,12.295-87.4551,50.5821,3.80571,13.2148,107.8408,36.8008,133.3652,38.4023,8.2852.5156-67.68649,43.1153,57.1104,42.1387,30.3857-.2344,127.1025,18.4687,139.4033-16.7949,27.0293-77.4961-43.1885-52.711-6.9375-74.9727,27.3184-16.7773,139.81931-4.334,60.8779-58.3945-45.68159-31.2808-79.1679-15.6719-13.958-57.1909,33.38189-21.252-103.26559-24.9346-106.7353-24.9346C435.69339,336.8628,442.03319,346.604,410.18549,348.811Z" transform="translate(-97.6055 -147.7349)" style="fill: #faf3eb;fill-rule: evenodd"/>
    <g>
      <path d="M260.01859,147.7349a200.128,200.128,0,0,1,51.9443,6.7646l10.9746,10.0606-15.3652,21.9477-1.4629,30.7271,20.4853,11.705-5.8535,27.8018-12.4355,16.0937,10.2402,11.7061,22.6807,8.7783-15.3623,31.46h17.5586l19.3857,13.8984,25.9717-8.0449,13.0791,9.7021c-27.7793,39.6045-80.8848,66.3814-141.8408,66.3814-89.69629,0-162.41309-57.9751-162.41309-129.4907C97.6055,205.71,170.3223,147.7349,260.01859,147.7349Z" transform="translate(-97.6055 -147.7349)" style="fill: #ebb37b;fill-rule: evenodd"/>
      <polygon points="214.357 6.765 225.332 16.825 209.967 38.773 208.504 69.5 228.989 81.205 223.136 109.007 210.7 125.1 220.94 136.807 243.621 145.585 228.259 177.045 245.817 177.045 265.203 190.943 291.175 182.898 304.254 192.6 290.441 198.992 280.933 210.697 254.596 215.82 240.694 228.256 216.554 231.184 196.799 225.329 169 223.865 153.635 211.429 138.272 209.967 128.029 188.018 133.149 171.191 118.517 147.049 129.491 132.418 127.298 102.422 140.465 84.132 139.736 67.306 154.368 62.184 165.342 38.773 181.437 35.846 194.605 27.068 197.53 12.436 214.357 6.765" style="fill: #fcd1a6;fill-rule: evenodd"/>
      <polygon points="291.175 182.898 305.278 191.217 307.612 192.948 304.976 194.168 291.525 200.392 282.269 211.786 281.873 212.271 281.259 212.391 255.384 217.425 241.843 229.537 241.433 229.904 240.897 229.971 216.754 232.895 216.411 232.938 216.067 232.838 196.502 227.042 168.909 225.589 168.352 225.558 167.912 225.203 152.953 213.096 138.109 211.681 137.129 211.586 136.712 210.695 126.472 188.747 126.19 188.149 126.381 187.518 131.279 171.425 117.045 147.94 116.445 146.946 117.141 146.017 127.724 131.904 125.576 102.543 125.533 101.929 125.899 101.416 138.72 83.611 138.012 67.38 137.96 66.101 139.17 65.678 153.115 60.796 163.779 38.044 164.161 37.239 165.037 37.079 180.76 34.22 193.051 26.026 195.835 12.098 196.032 11.124 196.982 10.802 213.811 5.131 214.77 4.808 215.52 5.495 225.332 16.825 213.946 8.721 199.03 13.748 196.299 27.405 196.158 28.109 195.563 28.505 182.394 37.285 182.112 37.474 181.741 37.541 166.523 40.308 155.926 62.913 155.618 63.571 154.935 63.81 141.513 68.51 142.187 84.059 142.213 84.651 141.863 85.137 129.063 102.915 131.213 132.297 131.261 132.93 130.87 133.45 120.594 147.152 134.621 170.301 135.021 170.958 134.797 171.691 129.867 187.89 139.415 208.347 153.797 209.714 154.315 209.767 154.721 210.093 169.647 222.174 196.887 223.607 197.097 223.619 197.285 223.674 216.694 229.428 239.959 226.605 253.447 214.536 253.81 214.215 254.272 214.125 279.992 209.123 289.108 197.906 289.36 197.592 289.723 197.426 300.897 192.253 291.175 182.898" style="fill: #ffe8d1;fill-rule: evenodd"/>
    </g>
    <g>
      <path d="M694.18548,259.2554c9.89952,39.5869,3.4747,79.3603-21.39348,108.5459-42.23342,49.5639-123.07231,51.476-188.74021,7.5039l.5244-13.2129,21.5713-8.4258,12.081-17.1797,18.2998-6.4248-1.1054-15.8896,20.6357-10.293-2.7119-19.3359,20.48531,3.6591,15.72759-18.29,22.49019,5.0342,18.6231-14.2393,22.9033,7.7412,9.50882-10.9736,20.91888,3.1016Z" transform="translate(-97.6055 -147.7349)" style="fill: #ebb37b;fill-rule: evenodd"/>
      <polygon points="386.446 227.57 386.971 214.357 408.542 205.932 420.623 188.752 438.923 182.327 437.817 166.438 458.453 156.144 455.741 136.809 476.227 140.468 491.954 122.178 514.444 127.212 533.067 112.973 555.971 120.714 565.479 109.74 586.398 112.842 596.58 111.52 589.988 126.566 579.014 129.127 574.625 144.125 558.896 148.515 550.481 167.538 536.58 171.193 529.265 186.192 517.192 188.021 500.732 198.264 476.955 201.188 470.373 216.918 455.374 221.674 444.033 220.942 426.842 231.185 404.527 226.065 386.446 227.57" style="fill: #fcd1a6;fill-rule: evenodd"/>
      <polygon points="586.398 112.842 596.58 111.52 591.566 127.255 591.219 128.053 590.378 128.248 580.383 130.581 576.277 144.604 576.009 145.528 575.082 145.785 560.146 149.953 552.06 168.233 551.725 168.99 550.92 169.205 537.788 172.658 530.817 186.947 530.42 187.764 529.522 187.899 517.798 189.676 501.645 199.728 501.317 199.931 500.941 199.978 478.16 202.781 471.966 217.58 471.654 218.325 470.892 218.566 455.894 223.322 455.593 223.417 455.267 223.395 444.452 222.698 427.725 232.662 427.127 233.019 426.458 232.867 404.41 227.807 386.59 229.292 384.648 229.456 386.971 214.357 388.247 225.689 404.387 224.341 404.644 224.322 404.913 224.384 426.556 229.35 443.15 219.464 443.614 219.188 444.141 219.221 455.155 219.931 469.089 215.513 475.362 200.526 475.753 199.598 476.746 199.474 500.148 196.595 516.283 186.557 516.588 186.366 516.938 186.313 528.109 184.618 535.027 170.438 535.373 169.728 536.142 169.526 549.238 166.08 557.316 147.819 557.645 147.075 558.435 146.853 573.241 142.723 577.358 128.648 577.645 127.675 578.623 127.445 588.757 125.081 593.314 114.676 586.398 112.842" style="fill: #ffe8d1;fill-rule: evenodd"/>
    </g>
    <path d="M449.49709,456.1094c45.9365,0,83.4013-13.9668,83.4013-31.0938,0-17.123-37.4648-31.0923-83.4013-31.0923s-83.4024,13.9693-83.4024,31.0923C366.09469,442.1426,403.56049,456.1094,449.49709,456.1094Z" transform="translate(-97.6055 -147.7349)" style="fill: #fc0;fill-rule: evenodd"/>
    <path d="M436.32709,434.1895c27.6016,0,50.1163-8.3926,50.1163-18.6817,0-10.291-22.5147-18.6831-50.1163-18.6831-27.5996,0-50.1142,8.3921-50.1142,18.6831C386.21289,425.7969,408.72749,434.1895,436.32709,434.1895Z" transform="translate(-97.6055 -147.7349)" style="fill: #ffe16b;fill-rule: evenodd"/>
    <path d="M426.084,358.2231c-3.44531,4.5313-31.51171,6.9327-11.03811,13.4815,11.7979,3.7725,29.1494-.7598,39.7568-6.1348,2.4151-1.2246,19.5352-9.1758,21.7598-8.957,5.2988-5.8467-40.2187-11.8906-50.47849,1.6103ZM414.19629,468.5469c-4.9658,1.4551-29.624-6.3926-35.458-10.2735-14.6367-9.7343-19.7051-9.1015-37.792-8.0468-8.1192.4726-1.7764,9.7617-22.8242,14.3925-3.9229.8614-8.9502,8.627,4.124,12.8106,22.2246,7.1113,25.1943,6.1133,48.2041,6.1133,4.3584,0,20.0781,8.0312,30.7051,9.3867,15.0644,1.9238,25.6718,6.6152,30.4775-13.4707,1.0527-4.4043,3.6201-17.086-17.4365-10.9121Zm99.3125-8.0469c10.82621-5.6816,19.04-11.2812,30.7256-15.2383,14.30561-4.8437,8.1045-19.4531,42.9238-15.9179.9531.0976,10.00489,14.8085-3.6885,18.3535-15.4843,4.0078-18.957,4.3515-31.55269,13.3242-1.61621,1.1523-40.29,16.6211-39.87011,6.0625.1787-4.5567-.6865-5.457,1.4619-6.584Zm-47.1895,84.3145c12.7774-.0957,29.2041-37.4942,44.9629-37.4942,20.5117,0,20.2451,11.1192,16.7969,27.9902-5.9443,29.0879-15.1562,16.4219-42.1318,23.4415-4.2002,1.0957-40.5254,8.5625-41.668,4.6308-4.5918-15.8047,6.1914-15.3769,18.5918-19.084C463.42579,544.1328,465.66209,544.8203,466.31929,544.8145Z" transform="translate(-97.6055 -147.7349)" style="fill: #fffdfa;fill-rule: evenodd"/>
  </g>
</svg>
