<svg xmlns="http://www.w3.org/2000/svg" viewBox="0 0 900 900"><defs><style>.a{fill:#f4a932;}.b{fill:#fa7018;}.c{fill:#f97b1d;}.d{fill:#f5a02e;}.e{fill:#f78220;}.f{fill:#f78e25;}.g{fill:#f59629;}.h{fill:#fefcfa;}.i{fill:#251813;}</style></defs><path class="a" d="M457-29.11H718c9.99292,2.44715,18.76978,6.92073,24.22028,16.02455C744.63483-9.05243,746.10254-4.45256,748-.11v477c-1.45239-1.113-3.64813-1.92474-4.24072-3.38641-5.22681-12.89291-16.57685-22.27707-20.47016-35.90482a8.21591,8.21591,0,0,0-1.42-2.02462c-2.51031-3.62973-4.9223-7.33167-7.53967-10.88236-4.65607-6.31622-9.435-12.54193-14.16254-18.80548-.05395-2.16153-.155-4.32309-.15527-6.48462q-.01749-174.10848-.02173-348.217c-.00183-20.5222-11.7063-32.27961-32.14533-32.28451q-87.42891-.021-174.85784-.02081c-1.99512-.0004-3.99018-.10118-5.98529-.15518a6.86848,6.86848,0,0,0-.63581-2.36774c-3.52936-4.73881-7.85119-8.55719-10.33221-14.47806-3.01209-7.18811-8.82288-13.17136-13.14386-19.85616C460.61939-21.49,458.944-25.38684,457-29.11Z" transform="translate(152 29.11)"/><path class="b" d="M-152,840.89q0-206.5,0-413c.94762.81617,2.1733,1.462,2.79559,2.47745,2.97379,4.85294,5.61073,9.91812,8.69878,14.6936,3.38852,5.24012,7.24738,10.17447,10.69166,15.38074,2.07414,3.1351,3.75269,6.53229,5.60187,9.81571,3.79225,6.73364,7.34182,13.62,11.4601,20.14782,2.39146,3.79065,5.69311,7.00708,8.58519,10.48188.05665,2.16137.16271,4.32281.16286,6.48419q.00988,141.88128.00759,283.76257c.0022,19.82519,11.91122,31.75171,31.6686,31.754q94.67079.0108,189.34159.00506c1.99484.00025,3.98971.106,5.98455.1626-.80374,2.98962-.50274,5.22986,2.68183,7.03979,1.57193.89344,3.19452,3.67633,2.98581,5.38318-.92569,7.57117,3.84875,10.17017,8.86572,11.95655a34.17786,34.17786,0,0,0,1.90713,5.41766c3.434,6.06134,7.02686,12.03271,10.56113,18.03723H-122c-7.99935-2.02423-15.94534-4.78064-20.80821-11.67139C-146.705,853.69682-148.99623,847.042-152,840.89Z" transform="translate(152 29.11)"/><path class="c" d="M-104.16681,500.8872c-2.89208-3.4748-6.19373-6.69123-8.58519-10.48188-4.11828-6.52777-7.66785-13.41418-11.4601-20.14782-1.84918-3.28342-3.52773-6.68061-5.60187-9.81571-3.44428-5.20627-7.30314-10.14062-10.69166-15.38074-3.08805-4.77548-5.725-9.84066-8.69878-14.6936-.62229-1.0155-1.848-1.66128-2.79559-2.47745v-307c4.88376.7106,6.85531,4.01967,7.678,8.456.2204,1.18849.50415,2.97213,1.29607,3.34671,4.3088,2.038,5.92058,5.98928,7.82312,9.86119,3.4973,7.11741,6.91986,14.28828,10.82485,21.18121,1.821,3.21429,4.67563,5.84877,7.1045,8.70976.85215,1.00371,2.14269,1.7446,2.70154,2.86955,2.86262,5.76224,5.52543,11.62339,8.32434,17.418a27.35957,27.35957,0,0,0,2.0828,3.1562c.05568,1.32784.16,2.65567.1601,3.98351q.00793,148.51549-.00671,297.031C-104.01152,498.23113-104.11276,499.55913-104.16681,500.8872Z" transform="translate(152 29.11)"/><path class="d" d="M700.16687,405.88631c4.7276,6.26355,9.50653,12.48926,14.1626,18.80548,2.61737,3.55069,5.02936,7.25263,7.53967,10.88236a8.21591,8.21591,0,0,1,1.42,2.02462c3.89331,13.62775,15.24335,23.01191,20.47016,35.90482.59259,1.46167,2.78833,2.27338,4.24072,3.38641v256c-2.06659-2.12146-4.28918-4.11468-6.16229-6.395a79.37223,79.37223,0,0,1-7.55683-10.183c-2.20337-3.78845-3.45819-8.11676-5.51141-12.00653-6.46741-12.25238-16.9552-21.88434-22.66418-34.70294-1.03583-2.32593-3.913-3.83179-5.94019-5.71619-.05353-1.16126-.15363-2.32257-.15381-3.48383q-.01529-125.51687-.00836-251.03369C700.003,408.20794,700.10986,407.04714,700.16687,405.88631Zm40.80054,317.36557c.12311-.0614.30707-.09461.35211-.19208.04443-.09619-.05164-.25738-.08606-.38995l-.56183.32116Q740.81949,723.12148,740.96741,723.25188Z" transform="translate(152 29.11)"/><path class="e" d="M502,870.89H255c-3.67364-11.20972-11.19223-20.28217-16.8501-30.38953-3.20529-5.72613-6.106-11.6228-9.14392-17.44262,1.161-.05469,2.32212-.15717,3.48319-.15729q119.015-.01648,238.03-.01007c1.16076.00006,2.32159.10651,3.48236.16333.80517,2.146,1.29229,4.48956,2.47827,6.399,2.92065,4.70208,6.26416,9.14,9.23474,13.81305,1.64032,2.5805,2.73889,5.50055,4.31372,8.12847C493.94806,857.93535,498.00067,864.39671,502,870.89Z" transform="translate(152 29.11)"/><path class="d" d="M457-29.11c1.944,3.72316,3.61939,7.62,5.88959,11.13227,4.321,6.6848,10.13177,12.66805,13.14386,19.85616,2.481,5.92087,6.80285,9.73925,10.33221,14.47806a6.86848,6.86848,0,0,1,.63581,2.36774c-1.992.057-3.98414.16375-5.9762.16387q-108.51946.0065-217.03888-.01224c-1.99249-.00034-3.985-.10106-5.97748-.155-.46264-.86293-.7211-1.9751-1.42093-2.5485C251.90323,12.33411,246.2991,9.20815,246.46616,1.911c.00866-.37953-.50916-.861-.89267-1.14589-4.45365-3.308-5.71021-8.30288-7.24954-13.22772a7.747,7.747,0,0,0-2.93366-4.1942A13.94159,13.94159,0,0,1,228-29.11Z" transform="translate(152 29.11)"/><path class="f" d="M-93-29.11H136c1.86246,2.57151,4.03357,4.97645,5.52841,7.74636,4.17353,7.73344,7.98072,15.66379,12.09989,23.42762,2.98559,5.62731,6.2381,11.113,9.37158,16.66186-1.82593.05618-3.65186.16135-5.47778.16147q-109.018.00717-218.036-.01018c-1.82629-.00028-3.65255-.10018-5.47883-.15362-.28-1.78385-1.21093-3.77718-.717-5.312,1.43846-4.47005-.27623-6.558-4.10351-7.77874A31.63874,31.63874,0,0,0-75.19578-.37032,19.48467,19.48467,0,0,1-76.97352-3.598c-1.62856-3.08159-3.21383-6.18707-4.90555-9.23349-.37152-.669-1.69435-1.27821-1.59646-1.66849,1.24429-4.961-3.44334-6.22686-5.51064-9.09534C-90.31545-25.43982-91.66147-27.2722-93-29.11Z" transform="translate(152 29.11)"/><path class="g" d="M700.16516,663.88628c2.0271,1.8844,4.9043,3.39026,5.94013,5.71619,5.709,12.8186,16.19677,22.45056,22.66418,34.70294,2.05322,3.88977,3.308,8.21808,5.51141,12.00653a79.37223,79.37223,0,0,0,7.55683,10.183c1.87311,2.28034,4.0957,4.27356,6.16229,6.395v110c-1.08228,2.5498-2.09424,5.1322-3.25891,7.64386C739.4162,862.0172,729.92346,868.05791,718,870.89H664a44.812,44.812,0,0,0-2.28686-5.16162c-3.75324-6.28967-7.6518-12.49237-11.43964-18.7616-1.18372-1.95929-1.77875-4.45251-3.351-5.96606-5.1651-4.97217-6.62006-11.63831-8.92041-17.94562,9.975-.05481,19.95-.1405,29.92511-.158,20.33819-.03577,32.05853-11.81573,32.06854-32.29687.00824-16.79688-.01965-33.59381.00531-50.39063Q700.058,702.04793,700.16516,663.88628Z" transform="translate(152 29.11)"/><path class="e" d="M-93-29.11c1.33853,1.83779,2.68455,3.67017,4.01383,5.51463,2.0673,2.86848,6.75493,4.13431,5.51064,9.09534-.09789.39028,1.22494.99945,1.59646,1.66849,1.69172,3.04642,3.277,6.1519,4.90555,9.23349A19.48467,19.48467,0,0,0-75.19578-.37032a31.63874,31.63874,0,0,1,4.38247,6.00311c3.82728,1.22076,5.542,3.30869,4.10351,7.77874-.4939,1.53481.437,3.52814.717,5.312-1.99189.05705-3.98364.15978-5.9756.16411-20.15344.04384-32.00377,11.80273-32.02473,31.84111-.02019,19.28941.01452,38.57889-.01039,57.8683q-.05634,43.64579-.16125,87.29152a27.35957,27.35957,0,0,1-2.0828-3.1562c-2.79891-5.79457-5.46172-11.65572-8.32434-17.418-.55885-1.125-1.84939-1.86584-2.70154-2.86955-2.42887-2.861-5.28353-5.49547-7.1045-8.70976-3.905-6.89293-7.32755-14.0638-10.82485-21.18121-1.90254-3.87191-3.51432-7.8232-7.82312-9.86119-.79192-.37458-1.07567-2.15822-1.29607-3.34671-.82269-4.43631-2.79424-7.74538-7.678-8.456v-122c1.23728-2.84114,2.37615-5.73008,3.72915-8.515C-142.90617-20.66722-133.51115-26.32743-122-29.11Z" transform="translate(152 29.11)"/><path class="f" d="M638.00214,823.0551c2.30035,6.30731,3.75531,12.97345,8.92041,17.94562,1.5722,1.51355,2.16723,4.00677,3.351,5.96606,3.78784,6.26923,7.6864,12.47193,11.43964,18.7616A44.812,44.812,0,0,1,664,870.89H502c-3.99933-6.49329-8.05194-12.95465-11.97174-19.49561-1.57483-2.62792-2.6734-5.548-4.31372-8.12847-2.97058-4.673-6.31409-9.111-9.23474-13.81305-1.186-1.90949-1.6731-4.25306-2.47821-6.399q56.82916-.08277,113.65832-.1546C604.44067,822.89018,621.22137,822.9995,638.00214,823.0551Z" transform="translate(152 29.11)"/><path class="c" d="M229.006,823.05785c3.03788,5.81982,5.93857,11.71649,9.14386,17.44262C243.80777,850.60783,251.32636,859.68028,255,870.89H150c-3.53427-6.00452-7.1271-11.97589-10.56113-18.03723a34.17786,34.17786,0,0,1-1.90713-5.41766c-5.017-1.78638-9.79141-4.38538-8.86572-11.95655.20871-1.70685-1.41388-4.48974-2.98581-5.38318-3.18457-1.80993-3.48557-4.05017-2.68176-7.03979Q176.0023,823.05678,229.006,823.05785Z" transform="translate(152 29.11)"/><path class="g" d="M162.99988,18.72585C159.8664,13.177,156.61389,7.6913,153.6283,2.064c-4.11917-7.76383-7.92636-15.69418-12.09989-23.42762-1.49484-2.76991-3.666-5.17485-5.52841-7.74636h92a13.94159,13.94159,0,0,0,7.39029,12.45314,7.747,7.747,0,0,1,2.93366,4.1942c1.53933,4.92484,2.79589,9.91972,7.24954,13.22772.38351.28485.90133.76636.89267,1.14589-.16706,7.29719,5.43707,10.42315,10.12182,14.26143.69983.5734.95829,1.68557,1.42087,2.5485Z" transform="translate(152 29.11)"/><path class="h" d="M-152,840.89c3.00376,6.152,5.295,12.80682,9.19178,18.32861,4.86287,6.89075,12.80886,9.64716,20.80821,11.67139h-30Q-152,855.89-152,840.89Z" transform="translate(152 29.11)"/><path class="h" d="M748-.11c-1.89746-4.34256-3.36517-8.94243-5.77972-12.97544C736.76978-22.18926,727.99292-26.66284,718-29.11h30Z" transform="translate(152 29.11)"/><path class="h" d="M-122-29.11c-11.51115,2.78256-20.90617,8.44277-26.27085,19.485-1.353,2.78491-2.49187,5.67385-3.72915,8.515v-28Z" transform="translate(152 29.11)"/><path class="h" d="M718,870.89c11.92346-2.83209,21.4162-8.8728,26.74109-20.35614,1.16467-2.51166,2.17663-5.09406,3.25891-7.64386v28Z" transform="translate(152 29.11)"/><path class="i" d="M162.99988,18.72585l95.009-.005c1.99256.05391,3.98505.15463,5.97754.155q108.51942.01841,217.03888.01224c1.99206-.00012,3.98419-.10685,5.9762-.16386,1.99511.054,3.99017.15477,5.98529.15517q87.42892.01776,174.85784.02081c20.439.0049,32.1435,11.76231,32.14533,32.28451q.015,174.1085.02173,348.217c.00024,2.16153.10132,4.32309.15521,6.48462-.057,1.16083-.16388,2.32163-.16394,3.48245q-.00723,125.51688.00836,251.03369c.00018,1.16126.10028,2.32257.15387,3.48383q-.08441,38.16165-.16406,76.3233c-.025,16.79682.00293,33.59375-.00531,50.39063-.01,20.48114-11.73035,32.2611-32.06854,32.29687-9.9751.01752-19.95008.10321-29.92511.158-16.78077-.0556-33.56147-.16492-50.34223-.15588q-56.82916.03057-113.65832.1546c-1.16083-.05682-2.32166-.16327-3.48242-.16333q-119.015-.0066-238.03.01007c-1.16107.00012-2.32218.1026-3.48319.15729q-53.00367-.00111-106.00753-.00226c-1.99491-.05658-3.98978-.16235-5.98462-.1626q-94.67079-.01025-189.34159-.00506c-19.75738-.00226-31.6664-11.92878-31.6686-31.754q-.0157-141.8813-.00759-283.76257c-.00015-2.16138-.10621-4.32282-.16286-6.48419.05405-1.32807.15529-2.65607.15542-3.98414q.01449-148.51551.00671-297.031c-.00007-1.32784-.10442-2.65567-.1601-3.98351q.08294-43.64575.16125-87.29152c.02491-19.28941-.0098-38.57889.01039-57.8683.021-20.03838,11.87129-31.79727,32.02473-31.84111,1.992-.00433,3.98371-.10706,5.9756-.16412,1.82632.05344,3.65258.15334,5.47887.15362q109.018.01708,218.036.01018C159.348,18.8872,161.174,18.782,162.99988,18.72585Zm27.0003,624.32828c-.82873-.05494-1.65747-.15772-2.4862-.15784q-60.913-.01035-121.82593.00842c-1.10989.00043-2.21974.18677-3.30757.28443v25.70074c13.34468,0,26.31186.01447,39.279-.00269q52.66962-.06966,105.33928-.16107c19.92807.05536,39.85617.15912,59.78424.154q38.61159-.0098,77.22318-.15618c.82922.05267,1.65847.15142,2.4877.15155q91.396.01629,182.79193.00677c1.1131-.00018,2.22613-.16138,3.36468-.24945V642.8861c-2.33026,0-4.30835-.00007-6.2865,0q-85.40277.0042-170.8056.0155c-8.18411.00232-16.36819.1004-24.55231.15417-13.94955-.05645-27.89917-.1676-41.84869-.15838Q239.57877,642.93026,190.00018,643.05413ZM326.58353,298.75271a16.74429,16.74429,0,0,0-1.39047,2.5849c-14.4448,43.31424-15.872,87.16149-3.92771,131.13147,8.42752,31.02395,25.03955,56.78707,52.95816,74.13351,19.90875,12.36969,41.91919,17.64117,65.08527,17.81122,9.89038.07263,19.79376-1.63538,29.69128-2.53424,32.5091-5.53254,58.10138-21.75794,76.32654-49.3725,5.2478-10.52741,11.74481-20.62738,15.51892-31.659,13.61279-39.78912,13.891-80.36782,4.27631-121.0509-6.018-25.46414-17.59265-48.111-36.86536-66.24811-21.72736-20.44705-48.13818-29.7193-77.49445-31.304-19.80242-1.069-39.21618,1.00961-57.73809,8.70923C360.31683,243.205,339.44748,267.05633,326.58353,298.75271ZM175.02011,455.93749c-16.06463,9.78946-32.8342,10.26022-49.58661,2.5744-14.59591-6.69653-23.00576-19.28772-28.52085-33.85556-8.554-22.59488-9.52874-46.07974-7.30311-69.81082,2.00812-21.41174,7.62955-41.50214,22.64245-57.86984,1.54077-1.25968,3.063-2.54282,4.62512-3.77542,18.34884-14.47861,56.57727-18.09183,72.80847,16.26645,3.58462,7.588,5.75976,15.9179,7.87216,24.09018.92932,3.59527,2.21,4.37463,5.63727,4.16549,17.44034-1.06445,34.89557-1.88357,52.3446-2.80694,6.4863-.34324,9.45737-3.99247,8.34772-10.37693-.56894-3.27328-1.29855-6.525-2.10123-9.75027-13.22219-53.12814-49.083-88.24753-100.72979-92.2865-30.44471-2.38089-58.528,4.19638-83.214,22.91617A115.432,115.432,0,0,0,41.638,288.63253c-23.42012,47.41708-25.4778,96.60266-9.81192,146.54214,10.1723,32.42716,29.33391,58.434,59.71134,75.04779,23.753,12.99085,49.32522,16.49878,75.908,13.19251,14.10653-1.75464,27.66183-5.60041,39.81323-13.38953,12.33587-5.62964,21.15509-15.6955,29.489-25.603,16.427-19.52877,24.45844-43.05331,28.38114-68.05069a8.00811,8.00811,0,0,0-7.88666-9.48574c-9.64374-.38437-19.28232-.9726-28.92938-1.17853-9.60526-.205-19.2183-.04492-29.34363-.04492C195.899,424.237,191.1489,442.8236,175.02011,455.93749Z" transform="translate(152 29.11)"/><path class="g" d="M740.96741,723.25194l-.29578-.26093q.281-.16057.56183-.32122c.03442.13263.13049.29382.08606.39C741.27448,723.15727,741.09052,723.19048,740.96741,723.25194Z" transform="translate(152 29.11)"/><path class="e" d="M112.252,296.97567c-15.0129,16.3677-20.63433,36.4581-22.64245,57.86984-2.22563,23.73108-1.25087,47.21594,7.30311,69.81082,5.51509,14.56784,13.92494,27.159,28.52085,33.85556,16.75241,7.68582,33.522,7.21506,49.58652-2.57434a7.13546,7.13546,0,0,0,.54443,2.38709c6.67243,10.07327,13.6496,19.95425,20.03885,30.20227,4.30472,6.90454,7.79868,14.31463,11.65534,21.49853-12.1514,7.78912-25.7067,11.63489-39.81323,13.38953-26.58277,3.30627-52.155-.20166-75.908-13.19251-30.37743-16.61377-49.539-42.62063-59.71134-75.04779C16.1602,385.23519,18.21788,336.04961,41.638,288.63253a115.43022,115.43022,0,0,1,36.20429-43.21445,20.34564,20.34564,0,0,0,2.10985,3.84287c3.22953,3.7323,7.25341,6.94174,9.76831,11.08294,2.648,4.36036,3.93623,9.47763,8.50433,12.63855,1.02588.70987,1.15741,2.65467,1.80716,3.97867,1.07931,2.19934,2.30749,4.32666,3.3556,6.53992.951,2.00812,2.33817,4.049,2.48462,6.14862C106.17154,293.942,107.77011,296.57485,112.252,296.97567Z" transform="translate(152 29.11)"/><path class="d" d="M393.024,230.95434c18.52185-7.69959,37.93561-9.77816,57.738-8.7092,29.35627,1.58465,55.76709,10.8569,77.49445,31.304,19.27271,18.13706,30.84735,40.784,36.86536,66.24811,9.61468,40.68308,9.33648,81.26178-4.27631,121.0509-3.77411,11.03159-10.27112,21.13156-15.519,31.659-4.28961-7.56689-8.405-15.24051-12.94537-22.65387-2.13459-3.4852-5.55451-6.2009-7.58265-9.73032-6.54638-11.392-12.67718-23.0223-19.09118-34.492-.67365-1.20453-2.16309-1.95285-3.274-2.91284,3.55255-25.47394,3.49329-50.79108-4.38678-75.54462-6.30536-19.807-17.5022-35.4443-38.50867-41.86935-11.12-3.40109-22.31707-2.90759-33.53283-.49414-.96351-1.44959-1.66517-3.204-2.93622-4.29544-5.24622-4.50516-8.03894-10.39987-10.102-16.77777-.50781-1.57-.64063-3.55594-1.69025-4.60764-6.20856-6.22067-9.38458-14.37512-14.11578-21.52487C395.7207,235.42806,394.3996,233.17318,393.024,230.95434Z" transform="translate(152 29.11)"/><path class="f" d="M469.00006,521.87957c-9.89752.89886-19.8009,2.60687-29.69128,2.53424-23.16608-.17005-45.17652-5.44153-65.08527-17.81122-27.91861-17.34644-44.53064-43.10956-52.95816-74.13351-11.94427-43.97-10.51709-87.81723,3.92771-131.13147a16.74024,16.74024,0,0,1,1.3905-2.58487c3.50348.09958,4.63559,2.29492,5.45386,5.37845a31.22877,31.22877,0,0,0,3.61032,7.90762c4.72644,7.8381,13.37014,13.53335,13.06375,24.14218-.01538.532,1.04062,1.16418,1.68234,1.63428,3.49292,2.5585,7.71768,4.48047,7.50955,9.93844-.0379.99372.9365,2.07837,1.57147,3.03626,2.65528,4.00567,5.65357,7.81643,7.96833,12.00677,2.68573,4.86194,4.64819,10.1182,7.1958,15.06354a91.71827,91.71827,0,0,0,5.1969,8.02954c.66766,3.39377,1.29449,6.79624,2.01135,10.17963,1.68683,7.96182,2.76392,16.1257,5.25641,23.82977,6.40472,19.79688,17.80554,35.29358,38.87091,41.54773,3.00183.89123,6.01654,1.73892,9.02533,2.60675Q451.99994,492.96661,469.00006,521.87957Z" transform="translate(152 29.11)"/><path class="f" d="M112.252,296.97567c-4.48188-.40082-6.08045-3.03372-6.37983-7.326-.14645-2.09958-1.53366-4.1405-2.48462-6.14862-1.04811-2.21326-2.27629-4.34058-3.3556-6.53992-.64975-1.324-.78128-3.2688-1.80716-3.97867-4.5681-3.16092-5.85637-8.27819-8.50433-12.63855-2.5149-4.1412-6.53878-7.35064-9.76831-11.08294a20.34564,20.34564,0,0,1-2.10985-3.84287c24.686-18.72,52.76931-25.29724,83.214-22.91635,51.64679,4.039,87.5076,39.15836,100.72979,92.2865.80268,3.22525,1.53229,6.477,2.10123,9.75027,1.10965,6.38446-1.86142,10.03369-8.34772,10.37693-17.449.92337-34.90426,1.74249-52.3446,2.80694-3.42722.20914-4.70795-.57022-5.63727-4.16549-2.1124-8.17228-4.28754-16.5022-7.87216-24.09018-16.2312-34.35828-54.45963-30.74506-72.80847-16.26645C115.315,294.43285,113.79276,295.716,112.252,296.97567Z" transform="translate(152 29.11)"/><path class="g" d="M379.83588,385.88985a91.72322,91.72322,0,0,1-5.1969-8.02957c-2.54761-4.94534-4.51007-10.2016-7.1958-15.06354-2.31476-4.19034-5.313-8.0011-7.96833-12.00677-.635-.95789-1.60937-2.04254-1.57147-3.03626.20813-5.458-4.01663-7.37994-7.50955-9.93844-.64172-.4701-1.69772-1.1023-1.68234-1.63428.30639-10.60883-8.33731-16.30408-13.06375-24.14218a31.22877,31.22877,0,0,1-3.61032-7.90762c-.81827-3.08353-1.95038-5.27887-5.45386-5.37845,12.86392-31.69641,33.73327-55.54773,66.44037-67.7984,1.37567,2.21884,2.69677,4.47372,4.13684,6.64993,4.7312,7.14975,7.90722,15.3042,14.11578,21.52487,1.04962,1.0517,1.18244,3.03763,1.69025,4.60764,2.06305,6.3779,4.85577,12.27261,10.102,16.77777,1.27105,1.09146,1.97271,2.84585,2.93615,4.29544-12.3446,4.18512-22.47351,11.34228-29.594,22.38852-11.43445,17.73864-15.33832,37.64407-16.3595,58.30044C379.71607,372.28289,379.89313,379.09215,379.83588,385.88985Z" transform="translate(152 29.11)"/><path class="g" d="M469.00006,521.87957q-17.00015-28.9129-34.00018-57.82587c2.14087-.14444,4.28174-.41592,6.42242-.41388,23.93347.023,41.62116-10.4761,51.6742-32.18225,4.20288-9.07471,6.28851-19.13,9.33685-28.73947,1.1109.96,2.60034,1.70831,3.274,2.91284,6.414,11.46967,12.5448,23.09995,19.09118,34.492,2.02814,3.52942,5.44806,6.24512,7.58265,9.73032,4.54034,7.41336,8.65576,15.087,12.94537,22.65387C527.10144,500.12163,501.50916,516.347,469.00006,521.87957Z" transform="translate(152 29.11)"/><path class="f" d="M207.25864,510.02544c-3.85666-7.1839-7.35062-14.594-11.65534-21.49853-6.38925-10.248-13.36642-20.129-20.03885-30.20227a7.13546,7.13546,0,0,1-.54443-2.38709c16.12888-13.11395,20.87894-31.70059,23.9491-50.275,10.12533,0,19.73837-.16013,29.34363.04492,9.64706.20593,19.28564.79416,28.92938,1.17853a8.00811,8.00811,0,0,1,7.88666,9.48574c-3.9227,24.99738-11.95411,48.52192-28.38114,68.05069C228.41373,494.32994,219.59451,504.3958,207.25864,510.02544Z" transform="translate(152 29.11)"/><path class="f" d="M331.0061,643.05577c8.18412-.05377,16.3682-.15185,24.55231-.15417q85.40277-.02445,170.8056-.0155c1.97815-.00007,3.95624,0,6.2865,0v25.7467c-1.13855.08807-2.25158.24927-3.36468.24945q-91.396.01272-182.79193-.00677c-.82923-.00013-1.65848-.09888-2.48773-.15155.02105-2.6344-1.16858-4.31379-2.80613-6.57123C337.00293,656.36669,334.304,649.494,331.0061,643.05577Z" transform="translate(152 29.11)"/><path class="e" d="M331.0061,643.05577C334.304,649.494,337.00293,656.36669,341.2,662.1527c1.63755,2.25744,2.82718,3.93683,2.80613,6.57123q-38.61155.08414-77.22315.15618c-19.92807.00513-39.85617-.09863-59.78421-.15393-2.71582-4.02392-5.461-8.02844-8.13968-12.077-2.98453-4.5108-5.90857-9.06165-8.85895-13.595q49.5786-.08386,99.15723-.1568C303.10693,642.88817,317.05655,642.99932,331.0061,643.05577Z" transform="translate(152 29.11)"/><path class="c" d="M190.00018,643.05413c2.95038,4.53344,5.87442,9.08429,8.85895,13.59509,2.67865,4.04852,5.42386,8.053,8.13968,12.077q-52.66969.08195-105.33931.161c-12.96716.01716-25.93434.00269-39.279.00269V643.18914c1.08783-.09766,2.19768-.284,3.30757-.28443q60.913-.02372,121.82593-.00842C188.34271,642.89641,189.17145,642.99919,190.00018,643.05413Z" transform="translate(152 29.11)"/><path class="i" d="M502.43335,402.7181c-3.04834,9.60947-5.134,19.66476-9.33685,28.73947-10.053,21.70615-27.74073,32.20526-51.6742,32.18225-2.14068-.002-4.28155.26944-6.42242.41388-3.00879-.86783-6.0235-1.71552-9.02533-2.60675-21.06537-6.25415-32.46619-21.75085-38.87091-41.54773-2.49249-7.70407-3.56958-15.868-5.25641-23.82977-.71686-3.38339-1.34369-6.78586-2.01135-10.17963.05725-6.79767-.11981-13.60693.21557-20.39087,1.02118-20.65637,4.925-40.5618,16.3595-58.30044,7.12048-11.04624,17.24939-18.2034,29.594-22.38852,11.21583-2.41345,22.41291-2.907,33.5329.49414,21.00647,6.425,32.20331,22.06238,38.50867,41.86935C505.92658,351.927,505.98584,377.24416,502.43335,402.7181Z" transform="translate(152 29.11)"/></svg>